<?xml version="1.0" encoding="UTF-8" standalone="no"?>
<!DOCTYPE svg PUBLIC "-//W3C//DTD SVG 1.1//EN" "http://www.w3.org/Graphics/SVG/1.1/DTD/svg11.dtd">
<svg width="800px" height="800px" version="1.1" xmlns="http://www.w3.org/2000/svg" xmlns:xlink="http://www.w3.org/1999/xlink" xml:space="preserve" xmlns:serif="http://www.serif.com/" style="fill-rule:evenodd;clip-rule:evenodd;stroke-linecap:round;stroke-linejoin:round;stroke-miterlimit:1.5;">
    <path d="M-5.243,815.907C-5.243,815.907 -51.791,520.129 20.975,516.538C563.534,489.765 518.103,400.996 597.495,313.278C632.14,275.001 754.227,221.106 800,195.104L800,808.818L-5.243,815.907Z" style="fill:rgb(44,45,60);"/>
    <path d="M444.404,424.738C477.613,348.17 825.528,186.371 798.539,195.478C771.55,204.586 629.57,238.359 629.57,238.359L504.708,292.147L347.066,382.437L257.572,424.102C257.572,424.102 226.034,424.471 195.857,438.915C165.68,453.358 186.777,455.752 143.093,465.087C99.409,474.423 38.2,494.333 19.22,505.505C-32.449,535.918 -20.272,517.203 -5.243,540.571C26.223,589.494 409.049,506.252 444.404,424.738Z" style="fill:rgb(105,106,143);"/>
    <path d="M366.35,94.481L346.403,97.854L306.851,103.12L276.828,123.2L236.623,193.698L233.636,245.212L242.623,289.073L262.237,316.195L307.822,361.837L397.074,361.837L450.464,343.302L500.01,297.348L526.602,245.212L514.875,190.168L508.51,173.562L483.229,138.593L470.15,120.573L421.411,102.297L396.519,96.124" style="fill:rgb(93,94,126);"/>
    <path d="M309.827,361.837L361.712,293.32L397.584,245.212L409.313,192.07L434.271,147.423L449.263,113.268C455,114.348 467.932,117.952 470.832,121.267C475.462,126.56 498.717,159.616 511.057,179.259L526.602,245.212L497.675,296.481L449.943,336.406L388.617,361.837L309.827,361.837Z" style="fill:rgb(81,82,110);"/>
    <path d="M472.069,245.212L445.433,285.447L409.313,323.624L373.75,342.288L362.205,361.837L387.968,361.837L448.917,335.94L499.71,295.735L526.602,245.212L512.469,184.844" style="fill:rgb(65,66,88);"/>
    <path d="M-5.243,540.571C30.182,590.83 236.642,449.465 233.636,468.499C230.596,487.747 358.606,426.738 390.046,416.856C480.295,388.49 481.709,351.855 482.201,345.329C485.019,307.996 800,195.104 800,195.104L476.103,505.505L177.401,614.12L-0,708.82L-5.243,540.571Z" style="fill:rgb(69,70,94);"/>
    <path d="M516.096,540.571C442.877,563.75 522.56,631.784 278.723,725.757C215.486,750.127 79.43,748.379 0,800C-12.351,808.027 -3.278,659.489 9.886,651.17C147.609,564.141 435.17,544.943 400,490.486C384.169,465.974 611.698,286.142 800,195.104C800,195.104 691.738,374.125 650.726,390.074C581.288,417.078 562.398,525.913 516.096,540.571Z" style="fill:rgb(58,59,79);"/>
    <path d="M237.009,259.525L210.608,280.154L204.01,288.032L186.146,301.287L181.652,312.54L179.12,330.747L175.987,337.088L174.377,345.491L176.089,353.283L173.444,361.701L161.775,374.176L161.455,391.375L154.387,401.46L149.68,417.679C149.68,417.679 138.877,425.126 135.403,429.66C131.93,434.195 135.196,439.612 128.842,444.885C122.487,450.159 115.767,461.282 115.767,461.282L116.567,469.809L122.385,478.472L128.049,477.507L129.338,466.034C129.338,466.034 125.961,461.691 127.077,461.079C131.901,459.805 134.97,450.602 135.962,449.863L149.493,441.427L154.817,433.861C154.817,433.861 159.574,430.88 160.69,429.453C161.586,428.306 161.511,425.301 161.511,425.301L174.852,419.607L187.339,398.036C187.339,398.036 214.092,399.25 214.727,394.924C215.362,390.597 211.424,405.239 211.424,405.239L212.825,410.43L202.794,431.752L202.794,439L226.548,433.256L217.013,431.315L222.363,415.206C222.363,415.206 231.902,397.339 232.995,396.573C234.087,395.806 236.026,386.839 236.026,386.839L228.687,376.585C228.687,376.585 220.702,372.759 211.138,371.44C206.565,370.808 198.614,370.153 196.663,371.883C190.63,377.23 198.907,364.676 198.907,364.676L204.91,357.847L207.602,349.134L213.306,349.134C213.306,349.134 221.465,357.098 226.716,355.085C231.966,353.072 245.232,353.9 245.232,353.9L260.126,344.389L266.846,332.707L281.093,335.256L265.401,319.513L257.485,331.927L239.353,340.872C239.353,340.872 232.435,332.606 227.561,336.974C222.922,341.131 220.063,329.77 220.063,329.77L222.806,325.763L226.746,328.55L228.034,324.673L237.828,318.281L237.21,304.452L223.349,299.588L211.343,307.978L205.65,308.737L205.605,305.287L212.019,300.716L218.749,289.398L228.611,282.794L235.942,267.341L242.852,267.341L245.775,261.735L235.991,245.212L237.009,259.525Z" style="fill:rgb(65,66,88);stroke:rgb(65,66,88);stroke-width:1px;"/>
    <path d="M800,195.104L-5.243,540.571L800,195.104Z" style="fill:rgb(65,66,88);"/>
</svg>
